<svg xmlns="http://www.w3.org/2000/svg" xmlns:xlink="http://www.w3.org/1999/xlink" viewBox="0 0 66 82.5" version="1.1" x="0px" y="0px"><defs><path d="M37,29 L37,0 L29,0 L29,29 L0,29 L0,37 L29,37 L29,66 L37,66 L37,37 L66,37 L66,29 L37,29 Z" id="a"/></defs><g stroke="none" stroke-width="1" fill="none" fill-rule="evenodd"><g><use fill="#000000" fill-rule="evenodd" xlink:href="#a"/><path stroke="#000000" stroke-width="1" d="M65.5,29.5 L65.5,36.5 L37,36.5 L36.5,36.5 L36.5,37 L36.5,65.5 L29.5,65.5 L29.5,37 L29.5,36.5 L29,36.5 L0.5,36.5 L0.5,29.5 L29,29.5 L29.5,29.5 L29.5,29 L29.5,0.5 L36.5,0.5 L36.5,29 L36.5,29.5 L37,29.5 L65.5,29.5 Z"/></g></g></svg>